<svg xmlns="http://www.w3.org/2000/svg" width="54.321" height="54.401" viewBox="0 0 54.321 54.401">
  <path id="Path_11573" data-name="Path 11573" d="M92.968,301.773a2.068,2.068,0,1,1-4.133,0,2.067,2.067,0,1,1,4.133,0ZM81.477,320.541a3.2,3.2,0,0,1-3.143-3.143,3.253,3.253,0,0,1,3.143-3.142,3.2,3.2,0,0,1,3.141,3.142,3.142,3.142,0,0,1-3.141,3.143Zm0-8.352a5.21,5.21,0,1,0,5.29,5.209,5.188,5.188,0,0,0-5.29-5.209ZM67.916,293.42h8.352v2.069H67.916Zm6.284,8.353a2.068,2.068,0,1,1-4.134,0,2.067,2.067,0,1,1,4.134,0Zm12.567-8.353h8.269v2.069H86.767Zm5.21-10.994H71.058a14.255,14.255,0,0,0-14.22,14.137v20.918a14.255,14.255,0,0,0,14.22,14.137H91.977a14.114,14.114,0,0,0,14.138-14.137V296.563a14.114,14.114,0,0,0-14.138-14.137ZM71.058,279.78H91.977a16.621,16.621,0,0,1,11.822,4.959,16.411,16.411,0,0,1,4.878,11.824v20.918A16.7,16.7,0,0,1,103.8,329.3a16.9,16.9,0,0,1-11.822,4.876H71.058a16.651,16.651,0,0,1-16.7-16.7V296.563a16.793,16.793,0,0,1,16.7-16.783Z" transform="translate(-54.356 -279.78)" fill="#727270" fill-rule="evenodd"/>
</svg>
