<svg xmlns="http://www.w3.org/2000/svg" width="54.32" height="54.401" viewBox="0 0 54.32 54.401">
  <path id="Path_11572" data-name="Path 11572" d="M182.428,299.7h-8.35v2.069h8.35Zm10.5,2.069H201.2V299.7h-8.267Zm-5.209,14.634c6.2,0,9.343-2.151,9.343-2.151a10.148,10.148,0,0,1-18.768,0s3.142,2.151,9.425,2.151Zm10.417-33.981H177.22a14.111,14.111,0,0,0-14.139,14.137v20.918a14.111,14.111,0,0,0,14.139,14.137h20.917a14.255,14.255,0,0,0,14.222-14.137V296.563a14.255,14.255,0,0,0-14.222-14.137ZM177.22,279.78h20.917a16.624,16.624,0,0,1,11.824,4.959,16.414,16.414,0,0,1,4.877,11.824v20.918a16.65,16.65,0,0,1-16.7,16.7H177.22A16.414,16.414,0,0,1,165.4,329.3a16.7,16.7,0,0,1-4.877-11.824V296.563a16.791,16.791,0,0,1,16.7-16.783Z" transform="translate(-160.518 -279.78)" fill="#727270" fill-rule="evenodd"/>
</svg>
