<svg xmlns="http://www.w3.org/2000/svg" width="54.484" height="54.404" viewBox="0 0 54.484 54.404">
  <path id="Path_11575" data-name="Path 11575" d="M389.54,173.782h20.919a16.94,16.94,0,0,1,16.783,16.785v20.919a16.795,16.795,0,0,1-16.783,16.7H389.54a16.795,16.795,0,0,1-16.782-16.7V190.567a16.94,16.94,0,0,1,16.782-16.785Zm20.919,2.564H389.54A14.26,14.26,0,0,0,375.4,190.567v20.919a14.125,14.125,0,0,0,4.134,10,14.476,14.476,0,0,0,10,4.133h20.919a14.479,14.479,0,0,0,10-4.133,14.127,14.127,0,0,0,4.136-10V190.567a14.264,14.264,0,0,0-14.14-14.221Zm-10.5,31.916a16.849,16.849,0,0,1,11.491,4.215v2.069a17.648,17.648,0,0,0-22.9,0v-2.069a16.766,16.766,0,0,1,11.41-4.215Zm-6.449-18.853-6.946,4.714,1.241,1.737,6.863-4.714Zm11.823,1.82,6.944,4.631,1.158-1.737-6.947-4.714Z" transform="translate(-372.758 -173.782)" fill="#727270" fill-rule="evenodd"/>
</svg>
