<svg xmlns="http://www.w3.org/2000/svg" width="55.66" height="74.675" viewBox="0 0 55.66 74.675">
  <g id="Group_2629" data-name="Group 2629" transform="translate(-160.34 -236)">
    <path id="Path_11572" data-name="Path 11572" d="M198.137,282.426H177.22a14.111,14.111,0,0,0-14.139,14.137v20.918a14.111,14.111,0,0,0,14.139,14.137h20.917a14.255,14.255,0,0,0,14.222-14.137V296.563a14.255,14.255,0,0,0-14.222-14.137ZM177.22,279.78h20.917a16.624,16.624,0,0,1,11.824,4.959,16.414,16.414,0,0,1,4.877,11.824v20.918a16.65,16.65,0,0,1-16.7,16.7H177.22A16.414,16.414,0,0,1,165.4,329.3a16.7,16.7,0,0,1-4.877-11.824V296.563a16.791,16.791,0,0,1,16.7-16.783Z" transform="translate(-0.178 -23.506)" fill="#727270" fill-rule="evenodd"/>
    <circle id="Ellipse_269" data-name="Ellipse 269" cx="2" cy="2" r="2" transform="translate(186 290)" fill="#727270"/>
    <path id="Path_11571" data-name="Path 11571" d="M393.9,208.262a7.9,7.9,0,0,1,5.385,1.975V212a8.271,8.271,0,0,0-10.733,0v-1.761A7.858,7.858,0,0,1,393.9,208.262Z" transform="translate(571.331 487.477) rotate(180)" fill="#727270" fill-rule="evenodd"/>
    <path id="Path_11574" data-name="Path 11574" d="M393.9,208.262a7.9,7.9,0,0,1,5.385,1.975V212a8.271,8.271,0,0,0-10.733,0v-1.761A7.858,7.858,0,0,1,393.9,208.262Z" transform="translate(591.331 487.477) rotate(180)" fill="#727270" fill-rule="evenodd"/>
    <text id="Z" transform="translate(211 248)" fill="#727270" font-size="16" font-family="Gilroy-Bold, Gilroy" font-weight="700"><tspan x="-4.28" y="0">Z</tspan></text>
    <text id="Z-2" data-name="Z" transform="translate(203 251)" fill="#727270" font-size="10" font-family="Gilroy-Bold, Gilroy" font-weight="700"><tspan x="-2.675" y="0">Z</tspan></text>
  </g>
</svg>
