<svg xmlns="http://www.w3.org/2000/svg" id="followers" width="18" height="18" viewBox="0 0 18 18">
    <defs>
        <style>
            .cls-1{fill:#555}
        </style>
    </defs>
    <g id="Group_2188" data-name="Group 2188">
        <g id="Group_2187" data-name="Group 2187">
            <path id="Path_1609" d="M13.815 7.019A3.963 3.963 0 1 0 7.412 4.8a3.963 3.963 0 0 0-3.223 6.956A6.727 6.727 0 0 0 0 17.978h1.407a5.316 5.316 0 0 1 5.31-5.31 3.965 3.965 0 0 0 3.876-4.8 3.974 3.974 0 0 0 .7.061 5.3 5.3 0 0 1 4.231 2.106l.953-1.061a6.75 6.75 0 0 0-2.662-1.955zm-7.1 4.242A2.558 2.558 0 1 1 9.274 8.7a2.561 2.561 0 0 1-2.558 2.561zm4.571-4.737a2.558 2.558 0 1 1 2.558-2.558 2.561 2.561 0 0 1-2.556 2.559z" class="cls-1" data-name="Path 1609" transform="translate(0 -.002)"/>
        </g>
    </g>
    <g id="Group_2190" data-name="Group 2190" transform="translate(8.341 10.543)">
        <g id="Group_2189" data-name="Group 2189">
            <path id="Path_1610" d="M245.879 299.9l-4.885 5.439-2.757-2.624-.97 1.019 3.806 3.623 5.853-6.517z" class="cls-1" data-name="Path 1610" transform="translate(-237.267 -299.903)"/>
        </g>
    </g>
</svg>
