<svg xmlns="http://www.w3.org/2000/svg" width="271.744" height="534.961" viewBox="0 0 271.744 534.961">
  <g id="Group_1339" data-name="Group 1339" transform="translate(-6054 -5893)">
    <g id="Group_1318" data-name="Group 1318" transform="translate(6054 5893)">
      <path id="Path_1304" data-name="Path 1304" d="M309.839,69.794h-.782v-5.18l-1.567.575v-.706l2.227-.836h.122Z" transform="translate(-93.172 -42.113)" fill="#ccc"/>
      <path id="Path_1305" data-name="Path 1305" d="M313.85,69.824h-4.008v-.56l2.118-2.353a5.156,5.156,0,0,0,.649-.867,1.456,1.456,0,0,0,.178-.691,1.1,1.1,0,0,0-.29-.786,1.009,1.009,0,0,0-.774-.307,1.2,1.2,0,0,0-.9.33,1.263,1.263,0,0,0-.321.917h-.778a1.805,1.805,0,0,1,.545-1.366,2.015,2.015,0,0,1,1.454-.52,1.938,1.938,0,0,1,1.349.448,1.522,1.522,0,0,1,.5,1.19,3.505,3.505,0,0,1-1.152,2.152l-1.638,1.778h3.071Z" transform="translate(-90.683 -42.142)" fill="#ccc"/>
      <path id="Path_1306" data-name="Path 1306" d="M312.193,66.611a.482.482,0,0,1,.12-.336.452.452,0,0,1,.359-.135.468.468,0,0,1,.364.135.474.474,0,0,1,.123.336.45.45,0,0,1-.123.323.481.481,0,0,1-.364.131.465.465,0,0,1-.359-.131A.458.458,0,0,1,312.193,66.611Z" transform="translate(-87.933 -39.337)" fill="#ccc"/>
      <path id="Path_1307" data-name="Path 1307" d="M312.2,64.856a.482.482,0,0,1,.12-.336.452.452,0,0,1,.359-.135.468.468,0,0,1,.364.135.474.474,0,0,1,.123.336.45.45,0,0,1-.123.323.48.48,0,0,1-.364.129.464.464,0,0,1-.359-.129A.457.457,0,0,1,312.2,64.856Z" transform="translate(-87.931 -41.292)" fill="#ccc"/>
      <path id="Path_1308" data-name="Path 1308" d="M317.325,69.824h-4.008v-.56l2.118-2.353a5.156,5.156,0,0,0,.649-.867,1.456,1.456,0,0,0,.178-.691,1.1,1.1,0,0,0-.29-.786,1.009,1.009,0,0,0-.774-.307,1.2,1.2,0,0,0-.9.33,1.263,1.263,0,0,0-.321.917H313.2a1.805,1.805,0,0,1,.545-1.366,2.015,2.015,0,0,1,1.454-.52,1.938,1.938,0,0,1,1.349.448,1.522,1.522,0,0,1,.5,1.19,3.506,3.506,0,0,1-1.152,2.152l-1.638,1.778h3.071Z" transform="translate(-86.813 -42.142)" fill="#ccc"/>
      <path id="Path_1309" data-name="Path 1309" d="M318.668,67.135a1.908,1.908,0,0,1-.581.465,1.575,1.575,0,0,1-.742.178,1.638,1.638,0,0,1-.924-.26,1.709,1.709,0,0,1-.607-.733,2.521,2.521,0,0,1-.213-1.044,2.562,2.562,0,0,1,.232-1.106,1.721,1.721,0,0,1,.662-.753,1.89,1.89,0,0,1,1-.26,1.71,1.71,0,0,1,1.431.679,2.961,2.961,0,0,1,.522,1.852v.226a3.948,3.948,0,0,1-.706,2.606,2.711,2.711,0,0,1-2.129.843h-.152v-.66h.165a1.855,1.855,0,0,0,2.042-2.033Zm-1.2,0a1.2,1.2,0,0,0,.721-.241,1.414,1.414,0,0,0,.482-.592v-.311a2.148,2.148,0,0,0-.332-1.243,1.014,1.014,0,0,0-1.664-.087,1.621,1.621,0,0,0-.311,1.036,1.686,1.686,0,0,0,.3,1.032A.946.946,0,0,0,317.47,67.135Z" transform="translate(-84.137 -42.142)" fill="#ccc"/>
      <path id="Path_1310" data-name="Path 1310" d="M241.36,63.683a1.6,1.6,0,0,1,.175.011,1.7,1.7,0,0,1,1.021.5,1.714,1.714,0,0,1,.492,1.021c.006.059.008.116.011.175q.006,1.351,0,2.7c0,.059-.006.118-.013.175a1.59,1.59,0,0,1-.1.4,1.715,1.715,0,0,1-.4.626,1.746,1.746,0,0,1-.647.406,1.8,1.8,0,0,1-.376.087c-.059.006-.116.008-.175.011q-5.622.025-11.241-.021a1.6,1.6,0,0,1-.175-.011,1.8,1.8,0,0,1-.4-.1,1.727,1.727,0,0,1-1.032-1.048,1.749,1.749,0,0,1-.087-.374,1.664,1.664,0,0,1-.011-.175q-.006-1.351,0-2.7c0-.059.006-.118.013-.175a1.724,1.724,0,0,1,1.122-1.42,1.682,1.682,0,0,1,.4-.093c.057-.006.116-.008.175-.011Q235.74,63.636,241.36,63.683Zm-11.233.769a.926.926,0,0,0-.922.907c-.019.9-.011,1.8-.006,2.7a.916.916,0,0,0,.057.309.934.934,0,0,0,.216.338.912.912,0,0,0,.338.218.942.942,0,0,0,.3.057c3.744.078,7.489.038,11.235.021a.944.944,0,0,0,.649-.273.934.934,0,0,0,.216-.338.885.885,0,0,0,.057-.3c.019-.9.011-1.8.006-2.7a.96.96,0,0,0-.057-.309.935.935,0,0,0-.216-.338.913.913,0,0,0-.338-.218.939.939,0,0,0-.323-.057C237.6,64.467,233.862,64.435,230.127,64.452Zm-1.793,1.12a.474.474,0,0,0-.476.474l0,1.327a.472.472,0,0,0,.474.476h0a.475.475,0,0,0,.476-.473l0-1.327a.475.475,0,0,0-.474-.476Zm12.685-.556L234.708,65l-.006,3.437,6.312.011a.613.613,0,0,0,.636-.588l0-2.258A.613.613,0,0,0,241.02,65.017Z" transform="translate(-181.867 -42.107)" fill="#ccc"/>
      <g id="Group_1317" data-name="Group 1317" transform="translate(29.955 20.815)">
        <path id="Path_1311" data-name="Path 1311" d="M220.578,65.66h.526a.281.281,0,0,1,.309.241v1.41a.282.282,0,0,1-.309.243h-.526a.281.281,0,0,1-.307-.243V65.9A.28.28,0,0,1,220.578,65.66Z" transform="translate(-220.271 -60.686)" fill="#ccc"/>
        <path id="Path_1312" data-name="Path 1312" d="M221.495,65.032h.524a.281.281,0,0,1,.309.241V68.01a.282.282,0,0,1-.309.243h-.524a.282.282,0,0,1-.309-.243V65.273A.281.281,0,0,1,221.495,65.032Z" transform="translate(-219.252 -61.386)" fill="#ccc"/>
        <path id="Path_1313" data-name="Path 1313" d="M222.468,64.416h.526a.281.281,0,0,1,.309.241V68.7a.282.282,0,0,1-.309.243h-.526a.281.281,0,0,1-.307-.243V64.657A.28.28,0,0,1,222.468,64.416Z" transform="translate(-218.166 -62.072)" fill="#ccc"/>
        <path id="Path_1314" data-name="Path 1314" d="M223.413,63.923h.526a.281.281,0,0,1,.309.241v5.082a.282.282,0,0,1-.309.243h-.526a.281.281,0,0,1-.307-.243V64.164A.28.28,0,0,1,223.413,63.923Z" transform="translate(-217.113 -62.621)" fill="#ccc"/>
        <path id="Path_1315" data-name="Path 1315" d="M224.391,63.307h.526a.282.282,0,0,1,.309.241v6.386a.282.282,0,0,1-.309.241h-.526a.28.28,0,0,1-.307-.241V63.548A.28.28,0,0,1,224.391,63.307Z" transform="translate(-216.023 -63.307)" fill="#ccc"/>
      </g>
      <path id="Path_1316" data-name="Path 1316" d="M441.85,53.46H240.494A34.394,34.394,0,0,0,206.1,87.854V554.028a34.394,34.394,0,0,0,34.394,34.394H441.85a34.394,34.394,0,0,0,34.394-34.394V87.854A34.394,34.394,0,0,0,441.85,53.46Zm24.279,497.479a27.366,27.366,0,0,1-27.367,27.367H243.58a27.367,27.367,0,0,1-27.367-27.367v-460A27.367,27.367,0,0,1,243.58,63.575l24.782,0c2.074.059,9.554.913,9.554,10.146,0,10.719,9.827,11.034,9.827,11.034H394.6s9.827-.315,9.827-11.034c0-9.233,7.481-10.087,9.554-10.146l24.78,0a27.366,27.366,0,0,1,27.367,27.367Z" transform="translate(-206.1 -53.46)" fill="#ccc"/>
      <path id="Path_1317" data-name="Path 1317" d="M333.987,117.3h0a1.517,1.517,0,0,1,1.513,1.514v62.63a1.517,1.517,0,0,1-1.513,1.511h0a.087.087,0,0,1-.087-.087V117.392A.088.088,0,0,1,333.987,117.3Z" transform="translate(-63.756 17.651)" fill="#ccc"/>
      <circle id="Ellipse_200" data-name="Ellipse 200" cx="3.387" cy="3.387" r="3.387" transform="translate(163.492 17.588)" fill="#ccc"/>
      <path id="Path_1318" data-name="Path 1318" d="M297.527,65.707h-35A1.526,1.526,0,0,1,261,64.185h0a1.526,1.526,0,0,1,1.522-1.522h35a1.526,1.526,0,0,1,1.522,1.522h0A1.526,1.526,0,0,1,297.527,65.707Z" transform="translate(-144.952 -43.21)" fill="#ccc"/>
      <path id="Path_1319" data-name="Path 1319" d="M334.318,293.96H251.254a1.718,1.718,0,0,1-1.712-1.714h0a1.717,1.717,0,0,1,1.712-1.712h83.064a1.717,1.717,0,0,1,1.712,1.712h0A1.718,1.718,0,0,1,334.318,293.96Z" transform="translate(-157.714 210.594)" fill="#ccc"/>
    </g>
  </g>
</svg>
