<svg xmlns="http://www.w3.org/2000/svg" viewBox="0 0 652 652" width="652" height="652">
	<style>
		tspan { white-space:pre }
		.shp0 { fill: #2f839d } 
		.shp1 { fill: #ffffff } 
	</style>
	<g id="layer1">
		<g id="g4513">
			<path id="path4517" class="shp0" d="M320.22 72.12C182.19 72.12 70.15 184.16 70.15 322.19C70.15 460.21 182.19 572.26 320.22 572.26C458.24 572.26 570.28 460.21 570.28 322.19C570.28 184.16 458.24 72.12 320.22 72.12Z" />
			<path id="path4519" class="shp1" d="M226.36 206.9C242.92 206.9 260.78 213.72 274.1 225.41C275.72 226.71 276.05 228.98 274.42 230.6L258.84 247.17C257.21 248.47 255.26 248.47 253.64 247.49C246.17 240.67 237.73 238.07 227.98 238.07C206.55 238.07 189.34 256.26 189.34 277.7C189.34 299.13 206.87 316.67 227.98 316.67C233.5 316.67 239.68 316.02 245.52 313.42L245.52 302.05L233.18 302.05C230.91 302.05 229.61 300.43 229.61 298.48L229.61 278.99C229.61 276.72 231.23 275.42 233.18 275.42L272.8 275.42C274.75 275.42 276.37 277.05 276.37 278.99L276.7 331.61C276.7 332.58 276.05 334.2 275.07 334.85C275.07 334.85 254.94 347.52 226.36 347.52C187.39 347.52 155.89 316.67 155.89 277.37C155.89 238.07 187.39 206.9 226.36 206.9Z" />
			<path id="path4521" class="shp1" d="M306.9 212.42C306.9 210.47 308.52 208.85 310.47 208.85L333.86 208.85C335.8 208.85 337.43 210.47 337.43 212.42L337.43 342C337.43 343.95 335.8 345.57 333.86 345.57L310.47 345.57C308.52 345.57 306.9 343.95 306.9 342L306.9 212.42Z" />
			<path id="path4523" class="shp1" d="M430.96 206.9C447.52 206.9 465.39 213.72 478.7 225.41C480.32 226.71 480.65 228.98 479.03 230.6L463.44 247.17C461.81 248.47 459.86 248.47 458.24 247.49C450.77 240.67 442.33 238.07 432.58 238.07C411.15 238.07 393.94 256.26 393.94 277.7C393.94 299.13 411.47 316.67 432.58 316.67C438.43 316.67 444.28 316.02 450.12 313.42L450.12 302.05L437.78 302.05C435.51 302.05 434.21 300.43 434.21 298.48L434.21 278.99C434.21 276.72 435.83 275.42 437.78 275.42L477.4 275.42C479.35 275.42 480.97 277.05 480.97 278.99L481.3 331.61C481.3 332.58 480.65 334.2 479.67 334.85C479.67 334.85 459.54 347.52 430.96 347.52C391.99 347.52 360.49 316.67 360.49 277.37C360.81 238.07 391.99 206.9 430.96 206.9Z" />
			<path id="path4525" class="shp1" d="M180.89 424.16L185.11 416.69C185.76 415.39 187.71 415.72 188.36 416.04C188.69 416.37 195.18 421.24 201.35 421.24C204.93 421.24 207.52 418.97 207.52 415.72C207.52 411.82 204.28 408.9 198.11 406.63C190.31 403.38 180.24 397.53 180.24 386.49C180.24 377.4 187.39 368.3 201.35 368.3C210.77 368.3 218.24 373.18 220.84 375.12C221.81 375.77 221.81 377.4 221.49 378.05L216.94 385.19C216.29 386.17 214.67 387.14 213.69 386.49C212.72 386.17 206.22 380.97 200.7 380.97C197.46 380.97 194.86 383.24 194.86 385.52C194.86 388.76 197.46 391.36 204.93 394.29C212.07 397.21 223.44 402.73 223.44 415.07C223.44 424.49 215.32 433.91 201.68 433.91C189.66 433.91 183.17 429.03 181.22 426.76C180.57 425.79 180.24 425.46 180.89 424.16Z" />
			<path id="path4527" fill-rule="evenodd" class="shp1" d="M230.58 430.33L259.16 368.63C259.49 367.98 260.14 367.65 260.78 367.65L261.76 367.65C262.41 367.65 263.06 367.98 263.38 368.63L291.96 430.33C292.61 431.63 291.64 432.61 290.34 432.61L280.27 432.61C278.65 432.61 278 431.96 277.02 430.33L273.78 423.19L248.77 423.19L245.52 430.66C245.2 431.63 243.9 432.93 242.27 432.93L232.21 432.93C230.58 432.61 229.93 431.63 230.58 430.33ZM261.11 395.58L254.29 410.85L268.25 410.85L261.11 395.58Z" />
			<path id="path4529" class="shp1" d="M303.65 370.25C303.65 369.28 304.3 368.63 305.28 368.63L316.32 368.63C317.29 368.63 317.94 369.6 317.94 370.25L317.94 419.29L339.7 419.29C340.68 419.29 341.33 420.27 341.33 420.92L341.33 430.98C341.33 431.96 340.68 432.61 339.7 432.61L305.28 432.61C304.3 432.61 303.65 431.63 303.65 430.98L303.65 370.25Z" />
			<path id="path4531" fill-rule="evenodd" class="shp1" d="M347.5 430.33L376.08 368.63C376.4 367.98 377.05 367.65 377.7 367.65L378.67 367.65C379.32 367.65 379.97 367.98 380.3 368.63L408.88 430.33C409.53 431.63 408.55 432.61 407.25 432.61L397.19 432.61C395.56 432.61 394.91 431.96 393.94 430.33L390.69 423.19L365.68 423.19L362.44 430.66C362.11 431.63 360.81 432.93 359.19 432.93L349.12 432.93C347.82 432.61 347.17 431.63 347.5 430.33ZM378.35 395.58L371.53 410.85L385.17 410.85L378.35 395.58Z" />
			<path id="path4533" fill-rule="evenodd" class="shp1" d="M418.29 370.25C418.29 369.28 418.94 368.63 419.92 368.63L442.33 368.63C459.86 368.63 474.48 382.92 474.48 400.46C474.48 418.32 459.86 432.61 442.33 432.61L419.92 432.61C418.94 432.61 418.29 431.63 418.29 430.98L418.29 370.25ZM441.35 419.29C451.75 419.29 459.21 411.17 459.21 400.78C459.21 390.39 451.75 382.27 441.35 382.27L432.58 382.27L432.58 419.29L441.35 419.29Z" />
		</g>
	</g>
</svg>