<?xml version="1.0" encoding="utf-8"?>
<!-- Generator: Adobe Illustrator 19.2.1, SVG Export Plug-In . SVG Version: 6.00 Build 0)  -->
<svg version="1.1" id="layer" xmlns="http://www.w3.org/2000/svg" xmlns:xlink="http://www.w3.org/1999/xlink" x="0px" y="0px"
	 viewBox="0 0 652 652" style="enable-background:new 0 0 652 652;" xml:space="preserve">
<style type="text/css">
	.st0{fill:#2690FF;}
	.st1{fill:#FFFFFF;}
</style>
<g id="layer1" transform="translate(-41.806556,-165.10712)">
	<g id="g4513" transform="matrix(3.2476301,0,0,-3.2476301,41.806556,810.75872)">
		<path id="path4517" class="st0" d="M98.6,176.6c-42.5,0-77-34.5-77-77c0-42.5,34.5-77,77-77c42.5,0,77,34.5,77,77
			C175.6,142.1,141.1,176.6,98.6,176.6"/>
		<path id="path4519" class="st1" d="M69.7,135.1c5.1,0,10.6-2.1,14.7-5.7c0.5-0.4,0.6-1.1,0.1-1.6l-4.8-5.1
			c-0.5-0.4-1.1-0.4-1.6-0.1c-2.3,2.1-4.9,2.9-7.9,2.9c-6.6,0-11.9-5.6-11.9-12.2c0-6.6,5.4-12,11.9-12c1.7,0,3.6,0.2,5.4,1v3.5
			h-3.8c-0.7,0-1.1,0.5-1.1,1.1v6c0,0.7,0.5,1.1,1.1,1.1H84c0.6,0,1.1-0.5,1.1-1.1l0.1-16.2c0-0.3-0.2-0.8-0.5-1c0,0-6.2-3.9-15-3.9
			c-12,0-21.7,9.5-21.7,21.6C48,125.5,57.7,135.1,69.7,135.1"/>
		<path id="path4521" class="st1" d="M94.5,133.4c0,0.6,0.5,1.1,1.1,1.1h7.2c0.6,0,1.1-0.5,1.1-1.1V93.5c0-0.6-0.5-1.1-1.1-1.1h-7.2
			c-0.6,0-1.1,0.5-1.1,1.1L94.5,133.4"/>
		<path id="path4523" class="st1" d="M132.7,135.1c5.1,0,10.6-2.1,14.7-5.7c0.5-0.4,0.6-1.1,0.1-1.6l-4.8-5.1
			c-0.5-0.4-1.1-0.4-1.6-0.1c-2.3,2.1-4.9,2.9-7.9,2.9c-6.6,0-11.9-5.6-11.9-12.2c0-6.6,5.4-12,11.9-12c1.8,0,3.6,0.2,5.4,1v3.5
			h-3.8c-0.7,0-1.1,0.5-1.1,1.1v6c0,0.7,0.5,1.1,1.1,1.1H147c0.6,0,1.1-0.5,1.1-1.1l0.1-16.2c0-0.3-0.2-0.8-0.5-1
			c0,0-6.2-3.9-15-3.9c-12,0-21.7,9.5-21.7,21.6C111.1,125.5,120.7,135.1,132.7,135.1"/>
		<path id="path4525" class="st1" d="M55.7,68.2l1.3,2.3c0.2,0.4,0.8,0.3,1,0.2c0.1-0.1,2.1-1.6,4-1.6c1.1,0,1.9,0.7,1.9,1.7
			c0,1.2-1,2.1-2.9,2.8c-2.4,1-5.5,2.8-5.5,6.2c0,2.8,2.2,5.6,6.5,5.6c2.9,0,5.2-1.5,6-2.1c0.3-0.2,0.3-0.7,0.2-0.9l-1.4-2.2
			c-0.2-0.3-0.7-0.6-1-0.4c-0.3,0.1-2.3,1.7-4,1.7c-1,0-1.8-0.7-1.8-1.4c0-1,0.8-1.8,3.1-2.7c2.2-0.9,5.7-2.6,5.7-6.4
			c0-2.9-2.5-5.8-6.7-5.8c-3.7,0-5.7,1.5-6.3,2.2C55.6,67.7,55.5,67.8,55.7,68.2"/>
		<path id="path4527" class="st1" d="M82.6,72.3L80.4,77h0l-2.1-4.7L82.6,72.3L82.6,72.3z M71,66.3l8.8,19c0.1,0.2,0.3,0.3,0.5,0.3
			h0.3c0.2,0,0.4-0.1,0.5-0.3l8.8-19c0.2-0.4-0.1-0.7-0.5-0.7h-3.1c-0.5,0-0.7,0.2-1,0.7l-1,2.2h-7.7l-1-2.3c-0.1-0.3-0.5-0.7-1-0.7
			h-3.1C71,65.6,70.8,65.9,71,66.3"/>
		<path id="path4529" class="st1" d="M93.5,84.8c0,0.3,0.2,0.5,0.5,0.5h3.4c0.3,0,0.5-0.3,0.5-0.5V69.7h6.7c0.3,0,0.5-0.3,0.5-0.5
			v-3.1c0-0.3-0.2-0.5-0.5-0.5H94c-0.3,0-0.5,0.3-0.5,0.5V84.8"/>
		<path id="path4531" class="st1" d="M118.6,72.3l-2.1,4.7h0l-2.1-4.7L118.6,72.3L118.6,72.3z M107,66.3l8.8,19
			c0.1,0.2,0.3,0.3,0.5,0.3h0.3c0.2,0,0.4-0.1,0.5-0.3l8.8-19c0.2-0.4-0.1-0.7-0.5-0.7h-3.1c-0.5,0-0.7,0.2-1,0.7l-1,2.2h-7.7
			l-1-2.3c-0.1-0.3-0.5-0.7-1-0.7h-3.1C107.1,65.6,106.9,65.9,107,66.3"/>
		<path id="path4533" class="st1" d="M135.9,69.7c3.2,0,5.5,2.5,5.5,5.7c0,3.2-2.3,5.7-5.5,5.7h-2.7V69.7H135.9z M128.8,84.8
			c0,0.3,0.2,0.5,0.5,0.5h6.9c5.4,0,9.9-4.4,9.9-9.8c0-5.5-4.5-9.9-9.9-9.9h-6.9c-0.3,0-0.5,0.3-0.5,0.5V84.8"/>
	</g>
</g>
</svg>
