<svg xmlns="http://www.w3.org/2000/svg" id="marketing" width="35.847" height="26.633" viewBox="0 0 35.847 26.633">
    <defs>
        <style>
            .cls-1{fill:#2f839d}
        </style>
    </defs>
    <path id="Path_1495" d="M24.393 32.5a1.1 1.1 0 0 0-.566-.633 1.188 1.188 0 0 0-.87-.065l-4.767 1.479a1.079 1.079 0 0 0-.732 1.371l.238.7-12.125 8.511-4.783 1.484a1.127 1.127 0 0 0-.663.541 1.044 1.044 0 0 0-.068.83l2.906 8.541a1.137 1.137 0 0 0 1.083.752 1.189 1.189 0 0 0 .352-.054l4.783-1.484 2.457.012a5.208 5.208 0 0 0 10.069.051l2.52.013.238.7a1.1 1.1 0 0 0 .566.633 1.189 1.189 0 0 0 .869.065l4.767-1.479A1.079 1.079 0 0 0 31.4 53.1zM4.778 53.551l-2.2-6.471 2.79-.866 2.2 6.471zm11.9 2.658a2.879 2.879 0 0 1-2.66-1.709l5.311.027a2.882 2.882 0 0 1-2.65 1.682zM9.833 52.3l-1.2-3.522-1.2-3.522 11-7.718 3.374 9.917 1.672 4.915zm16.448 1.242l-.14-.411-3.011-8.851-3.151-9.262 2.6-.807 6.3 18.523z" class="cls-1" data-name="Path 1495" transform="translate(-.001 -31.752)"/>
    <path id="Path_1496" d="M182.161 37.253a.823.823 0 0 0 1.107-.36l1.477-2.9a.823.823 0 1 0-1.466-.747l-1.477 2.9a.823.823 0 0 0 .359 1.107z" class="cls-1" data-name="Path 1496" transform="translate(-153.035 -32.684)"/>
    <path id="Path_1497" d="M208.951 132l-2.9-1.476a.823.823 0 0 0-.747 1.467l2.9 1.476a.823.823 0 0 0 .747-1.467z" class="cls-1" data-name="Path 1497" transform="translate(-173.64 -115.48)"/>
    <path id="Path_1498" d="M203.913 84.307a.822.822 0 0 0 1.037.528l3.093-1.005a.823.823 0 0 0-.509-1.565l-3.093 1.005a.823.823 0 0 0-.528 1.037z" class="cls-1" data-name="Path 1498" transform="translate(-172.764 -74.631)"/>
</svg>
