<svg xmlns="http://www.w3.org/2000/svg" width="30.249" height="22.474" viewBox="0 0 30.249 22.474">
  <g id="marketing" transform="translate(-0.001 -31.752)">
    <path id="Path_1495" data-name="Path 1495" d="M19.657,32.387A.918.918,0,0,0,18.5,31.8l-3.841,1.248a.918.918,0,0,0-.59,1.157l.192.591L4.49,41.971.635,43.224a.918.918,0,0,0-.59,1.157l2.342,7.207a.917.917,0,0,0,1.157.59L7.4,50.925l1.98.01a4.152,4.152,0,0,0,8.114.043l2.031.011.192.591a.918.918,0,0,0,1.157.59l3.842-1.248a.918.918,0,0,0,.59-1.157ZM3.85,50.147l-1.774-5.46,2.248-.731L6.1,49.416Zm9.59,2.243A2.318,2.318,0,0,1,11.3,50.945l4.28.023A2.319,2.319,0,0,1,13.44,52.39Zm-5.517-3.3-.966-2.972-.966-2.972,8.866-6.513L17.578,45l1.347,4.147Zm13.254,1.048-.113-.347v0l-2.426-7.466L16.1,34.508l2.095-.681,5.078,15.63Z" transform="translate(0 0)" fill="#555"/>
    <path id="Path_1496" data-name="Path 1496" d="M182.213,37.769a.918.918,0,0,0,1.235-.4l1.648-3.233a.918.918,0,1,0-1.636-.834l-1.648,3.233A.918.918,0,0,0,182.213,37.769Z" transform="translate(-159.464 -0.918)" fill="#555"/>
    <path id="Path_1497" data-name="Path 1497" d="M209.425,132.186l-3.234-1.647a.918.918,0,0,0-.834,1.636l3.234,1.647a.918.918,0,0,0,.834-1.636Z" transform="translate(-179.774 -86.604)" fill="#555"/>
    <path id="Path_1498" data-name="Path 1498" d="M203.918,84.549a.917.917,0,0,0,1.157.59l3.451-1.121a.918.918,0,0,0-.568-1.747l-3.451,1.121A.918.918,0,0,0,203.918,84.549Z" transform="translate(-178.912 -44.293)" fill="#555"/>
  </g>
</svg>
