<svg xmlns="http://www.w3.org/2000/svg" width="43.908" height="45.635" viewBox="0 0 43.908 45.635">
    <path id="starsona_social" fill="#555" d="M45.35 19.207H3.75a1.147 1.147 0 0 0-.665 2.084l11.8 8.282a1.138 1.138 0 0 1 .435 1.327l-5.067 13.8a1.151 1.151 0 0 0 .7 1.473 1.167 1.167 0 0 0 1.069-.153l34.01-24.747a1.148 1.148 0 0 0 .261-1.6 1.134 1.134 0 0 0-.943-.466zm-9.872 5.5L19.156 36.571a1.149 1.149 0 0 1-1.608-.252 1.163 1.163 0 0 1-.153-1.069l2.066-5.65a1.131 1.131 0 0 0-.431-1.329l-5.075-3.557a1.141 1.141 0 0 1-.278-1.6 1.127 1.127 0 0 1 .943-.485h20.175a1.15 1.15 0 0 1 1.159 1.132 1.166 1.166 0 0 1-.477.939zM21.1 18.039h9.019a1.142 1.142 0 0 0 1.15-1.132 1.2 1.2 0 0 0-.054-.359L26.71 2.84a1.15 1.15 0 0 0-2.183 0l-4.518 13.726a1.15 1.15 0 0 0 .755 1.428 1.484 1.484 0 0 0 .336.045zM35.334 32.3a1.148 1.148 0 0 0-1.446-.737 1.092 1.092 0 0 0-.323.162l-7.348 5.345a1.136 1.136 0 0 0-.252 1.59 1.114 1.114 0 0 0 .252.252l11.866 8.552a1.145 1.145 0 0 0 1.6-.243 1.176 1.176 0 0 0 .171-1.033z" transform="translate(-2.6 -2.054)"/>
</svg>
