<svg id="Layer_1" data-name="Layer 1" xmlns="http://www.w3.org/2000/svg" viewBox="0 0 101.63 105.6"><defs><style>.cls-1{fill:#fff;}</style></defs><path class="cls-1" d="M189.34,39.69H93.06a2.65,2.65,0,0,0-1.54,4.82l27.32,19.16a2.65,2.65,0,0,1,1,3.08L108.11,98.69a2.67,2.67,0,0,0,4.09,3l78.72-57.25a2.65,2.65,0,0,0-1.58-4.8ZM166.48,52.43,128.71,79.89a2.67,2.67,0,0,1-4.09-3l4.79-13.07a2.64,2.64,0,0,0-1-3.08l-11.75-8.24a2.65,2.65,0,0,1,1.54-4.82h46.7a2.65,2.65,0,0,1,1.58,4.8ZM133.23,37H154.1a2.64,2.64,0,0,0,2.66-2.62,2.68,2.68,0,0,0-.13-.84L146.2,1.82a2.66,2.66,0,0,0-5,0L130.7,33.59a2.64,2.64,0,0,0,1.76,3.3A2.87,2.87,0,0,0,133.23,37Zm32.93,33a2.65,2.65,0,0,0-3.35-1.7,2.41,2.41,0,0,0-.75.38L145.06,81a2.63,2.63,0,0,0-.59,3.67,2.54,2.54,0,0,0,.59.59l27.46,19.78a2.65,2.65,0,0,0,4.09-3Z" transform="translate(-90.39 0)"/></svg>