<svg xmlns="http://www.w3.org/2000/svg" id="Layer_1-2" width="129.5" height="33.341" viewBox="0 0 129.5 33.341">
    <defs>
        <style>
            .cls-1{fill:#555}
        </style>
    </defs>
    <path id="Path_1340" d="M32.115 13.422H1.752a.837.837 0 0 0-.5 1.515L9.864 21a.853.853 0 0 1 .316.978L6.487 32.044a.831.831 0 0 0 .5 1.073.8.8 0 0 0 .789-.126L32.62 14.937a.822.822 0 0 0 .189-1.168.838.838 0 0 0-.694-.347zm-7.2 4.008l-11.927 8.68a.818.818 0 0 1-1.168-.189.975.975 0 0 1-.126-.789L13.209 21a.853.853 0 0 0-.316-.978l-3.724-2.591a.818.818 0 0 1-.189-1.168.838.838 0 0 1 .694-.347h14.74a.837.837 0 0 1 .5 1.515zm-10.506-4.86h6.6a.864.864 0 0 0 .852-.821.615.615 0 0 0-.032-.252L18.512 1.46a.875.875 0 0 0-1.073-.536.9.9 0 0 0-.537.537L13.62 11.5a.844.844 0 0 0 .568 1.042.537.537 0 0 0 .221.028zm10.415 10.416a.848.848 0 0 0-1.073-.537.945.945 0 0 0-.253.126l-5.334 3.882a.846.846 0 0 0-.189 1.168l.189.189 8.68 6.249a.822.822 0 0 0 1.168-.189.923.923 0 0 0 .126-.757z" class="cls-1" data-name="Path 1340" transform="translate(-.9 -.888)"/>
    <path id="Path_1341" d="M127.392 47.434c-1.483-.6-2.209-.915-2.209-1.925a1.476 1.476 0 0 1 1.641-1.515 1.914 1.914 0 0 1 1.768 1.1l1.767-.978a3.764 3.764 0 0 0-3.472-2.02 3.535 3.535 0 0 0-3.819 3.5c0 1.894 1.262 2.9 3.44 3.693 1.452.568 2.209.947 2.209 1.862s-.663 1.641-1.957 1.641a2.424 2.424 0 0 1-2.272-1.42l-1.988.757a4.619 4.619 0 0 0 4.356 2.588 3.639 3.639 0 0 0 3.914-3.6c-.001-2.168-1.8-3.017-3.378-3.683z" class="cls-1" data-name="Path 1341" transform="translate(-84.12 -29.093)"/>
    <path id="Path_1342" d="M158.071 29.1h-2.115v4.356H153.4v1.925h2.557v10.226h2.115V35.381h2.557v-1.925h-2.557z" class="cls-1" data-name="Path 1342" transform="translate(-105.267 -20.196)"/>
    <path id="Path_1343" d="M190.442 44.149a5.7 5.7 0 0 0-4.482-1.957 6.318 6.318 0 0 0 0 12.625 5.651 5.651 0 0 0 4.482-1.957v1.74h2.115V42.413h-2.115zm-4.2 8.553a4.229 4.229 0 1 1 4.2-4.261v.032a4.183 4.183 0 0 1-4.2 4.229z" class="cls-1" data-name="Path 1343" transform="translate(-123.403 -29.153)"/>
    <path id="Path_1344" d="M232.015 44.313v-1.894H229.9v12.152h2.115v-6.439c0-2.209 1.357-3.882 3.188-3.882a2.115 2.115 0 0 1 .978.221l.726-1.8a3.45 3.45 0 0 0-1.767-.473 3.338 3.338 0 0 0-3.125 2.115z" class="cls-1" data-name="Path 1344" transform="translate(-157.622 -29.159)"/>
    <path id="Path_1345" d="M260.761 47.434c-1.483-.6-2.209-.915-2.209-1.925a1.476 1.476 0 0 1 1.641-1.515 1.914 1.914 0 0 1 1.767 1.1l1.767-.978a3.764 3.764 0 0 0-3.472-2.02 3.535 3.535 0 0 0-3.819 3.5c0 1.894 1.263 2.9 3.44 3.693 1.452.568 2.209.947 2.209 1.862s-.663 1.641-1.957 1.641a2.424 2.424 0 0 1-2.272-1.42l-1.957.726a4.619 4.619 0 0 0 4.356 2.588 3.639 3.639 0 0 0 3.914-3.6c-.031-2.137-1.83-2.986-3.408-3.652z" class="cls-1" data-name="Path 1345" transform="translate(-175.416 -29.093)"/>
    <path id="Path_1346" d="M293.712 42.1a6.312 6.312 0 1 0 6.312 6.312 6.331 6.331 0 0 0-6.312-6.312zm0 10.542a4.229 4.229 0 1 1 4.2-4.261v.032a4.2 4.2 0 0 1-4.2 4.229z" class="cls-1" data-name="Path 1346" transform="translate(-196.974 -29.093)"/>
    <path id="Path_1347" d="M339.25 42.1a4.353 4.353 0 0 0-2.935 1.1v-.852H334.2V54.5h2.115v-7.95a2.621 2.621 0 0 1 5.239.095v7.827h2.115v-7.953a4.473 4.473 0 0 0-4.419-4.419z" class="cls-1" data-name="Path 1347" transform="translate(-229.003 -29.093)"/>
    <path id="Path_1348" d="M381.642 42.413v1.736a5.7 5.7 0 0 0-4.482-1.957 6.318 6.318 0 0 0 0 12.625 5.679 5.679 0 0 0 4.482-1.988v1.736h2.115V42.413zm-4.2 10.321a4.229 4.229 0 1 1 4.2-4.261v.027a4.264 4.264 0 0 1-4.2 4.229z" class="cls-1" data-name="Path 1348" transform="translate(-254.256 -29.153)"/>
</svg>
