<?xml version="1.0" ?><svg style="enable-background:new 0 0 512 512;" version="1.1" viewBox="0 0 512 512" xml:space="preserve" xmlns="http://www.w3.org/2000/svg" xmlns:xlink="http://www.w3.org/1999/xlink"><style type="text/css">
	.st0{display:none;fill:#FEFEFE;}
	.st1{fill:#25D366;}
	.st2{fill:#FFFFFF;}
</style><g id="Layer_1"/><g id="Layer_2"><g><path class="st0" d="M512.4,512.4c-170.7,0-341.3,0-512,0c0-170.7,0-341.3,0-512c170.7,0,341.3,0,512,0    C512.4,171.1,512.4,341.8,512.4,512.4z"/><path class="st1" d="M127.8,388.2c0.7-2.6,1.5-5,2.3-7.3c3.6-10.6,7.1-21.3,10.7-31.9c1.3-3.8,2.7-7.6,3.9-11.5    c0.4-1.1,0.3-1.9-0.4-2.9c-3.7-5.3-7.1-10.8-10.1-16.5c-4.8-9.3-8.6-19-11.3-29.1c-1.9-6.9-3-14-3.8-21.1    c-1.2-9.8-1.2-19.7-0.2-29.6c0.9-9,2.6-17.9,5.3-26.7c2.8-9.1,6.4-17.9,10.9-26.3c3.9-7.4,8.5-14.3,13.6-20.8    c5.2-6.5,10.8-12.6,17.1-18.1c5.6-5,11.6-9.6,17.9-13.7c5.3-3.4,10.9-6.5,16.6-9.1c5.5-2.5,11.1-4.8,16.8-6.6    c8.4-2.6,16.9-4.7,25.7-5.6c6.7-0.7,13.4-1.3,20.2-1.1c6.8,0.2,13.6,0.8,20.3,1.9c12.5,2,24.6,5.7,36.1,11    c14.9,6.8,28.1,16,39.9,27.3c10.3,10,18.8,21.2,25.8,33.8c5.1,9.3,9.1,19.1,12,29.3c4,14.1,5.7,28.5,5.3,43.1    c-0.3,10.7-1.7,21.2-4.5,31.5c-3.4,13-8.5,25.3-15.4,36.8c-7,11.8-15.6,22.3-25.6,31.7c-6.9,6.5-14.4,12.2-22.5,17.1    c-8.7,5.3-18,9.7-27.7,13.1c-8.7,3-17.7,5.1-26.8,6.5c-4.1,0.6-8.2,0.9-12.3,1c-2.1,0-4.1,0.3-6.2,0.3c-11.7,0-23.2-1.2-34.6-4    c-13.2-3.2-25.7-8.2-37.4-15c-2.1-1.2-4.2-2.4-6.2-3.8c-1-0.7-1.9-0.7-3-0.3c-6.5,2.2-13.1,4.3-19.6,6.4    c-10.7,3.4-21.4,6.8-32,10.2C128.4,388.2,128.2,388.2,127.8,388.2z"/><path class="st2" d="M206.4,168.4c2.5,0.1,5,0.1,7.4,0.5c1.9,0.3,3.5,1.2,4.7,2.7c1.3,1.6,2.2,3.3,2.9,5.2    c3.6,9.8,7.3,19.7,11,29.5c0.6,1.7,1.3,3.3,1.8,5c0.6,1.9,0.7,3.7-0.2,5.6c-1.2,2.7-2.6,5.2-4.5,7.4c-2.5,2.8-4.9,5.7-7.6,8.3    c-0.4,0.4-0.8,0.8-1.2,1.2c-1.7,1.9-2.1,3.9-1,6.2c1,1.9,1.9,3.8,3,5.6c4.3,7,8.9,13.7,14.3,19.8c5,5.7,10.5,10.8,16.5,15.4    c4.9,3.8,10.1,7.1,15.6,9.9c3.2,1.7,6.4,3.3,9.7,4.8c2.8,1.3,5.4,1.1,7.7-1.5c4.9-5.4,9.9-10.6,14.3-16.4c0.6-0.9,1.4-1.6,2.2-2.3    c1.4-1.1,2.9-1.5,4.6-1c3.4,0.9,6.5,2.5,9.6,4.1c9,4.7,17.9,9.5,26.9,14.3c0.3,0.2,0.6,0.3,0.9,0.5c3.1,1.5,4.6,3.8,4.3,7.5    c-0.4,4.8-1.6,9.3-3,13.9c-1.2,4-3.5,7.3-6.5,10.1c-2.1,2-4.3,3.7-6.7,5.2c-6.5,4.1-13.5,6.8-21.2,8c-5.4,0.8-10.6,0.3-15.8-1.1    c-8.2-2.4-16.2-5.3-24-8.6c-4-1.7-8-3.4-11.9-5.2c-6.3-2.9-12.2-6.4-17.8-10.4c-7.7-5.4-14.8-11.5-21.4-18.2    c-5-5-9.7-10.4-14.2-15.9c-6.9-8.5-12.7-17.6-18.6-26.8c-5.1-7.9-9.1-16.4-11.6-25.5c-1.6-5.8-2.5-11.7-2.1-17.7    c0.7-11.6,4.4-22,12.4-30.8c2.3-2.5,4.5-4.9,7.2-6.9c2.8-1.9,5.8-2.9,9.2-2.8C204.4,168.4,205.4,168.4,206.4,168.4z"/></g></g></svg>