<svg xmlns="http://www.w3.org/2000/svg" width="1175.906" height="358.156"><g><g><path d="M176.97 0C78.4 0 0 80.47 0 178.5c0 99.12 78.4 179.63 176.97 179.63 99.1 0 176.44-80.5 176.44-179.6C353.43 80.52 276.08 0 176.98 0zm0 75.77c80.5 0 139.46 51.12 164.38 102.8-24.92 52.44-83.9 103.8-164.38 103.8-81 0-139.5-51.38-164.4-103.8C37.46 126.9 95.96 75.8 176.96 75.8v-.03zm0 8.13c-52.44 0-95.2 42.44-95.2 94.62 0 52.98 42.76 95.2 95.2 95.2 52.44 0 94.63-42.22 94.63-95.16 0-52.2-42.2-94.66-94.63-94.66z"/><path d="M522.6 21.24c-92.56 0-157.07 70.26-157.07 155.72V178c0 86.5 65.82 154.96 154.72 154.96 57.94 0 92.56-20.72 123.5-54.03l-42.22-42.44c-23.6 21.47-44.87 35.4-79.22 35.4-51.63 0-87.55-43.3-87.55-94.94v-.78c0-51.65 36.7-93.87 87.56-93.87 30.17 0 53.77 12.86 77.1 34.1l42.23-48.78C613.57 40.1 579.5 21.24 522.6 21.24z"/><path d="M668.72 26.46v301.22h143.4c67.9 0 112.73-27.5 112.73-82.53v-1.06c0-40.38-21.48-60.6-56.38-73.95 21.5-12.05 39.6-30.92 39.6-65v-.78c0-20.74-6.83-37.5-20.72-51.4-17.3-17.04-44.3-26.5-78.66-26.5H668.7zM733.2 84.4h65.55c28.06 0 43.5 11.27 43.5 30.94v1.06c0 22.28-18.6 31.72-47.97 31.72l-61.1.03V84.4zm0 118.8h76.83c33.8 0 49 12.6 49 32.8V237c0 22.3-17.8 32.5-46.9 32.5l-78.94.04V203.2z"/><path d="M1054.8 22.02c-61.33 0-105.36 36.17-105.36 90.94v.8c0 59.82 39.3 76.6 99.87 92.08 50.35 13.08 60.83 21.47 60.83 38.25v1.05c0 17.55-16.54 28.3-43.53 28.3-34.62 0-62.93-14.17-89.94-36.46l-39.3 46.93c36.16 32.25 82.3 48 127.92 48v-.03c65.02 0 110.63-33.58 110.63-93.3v-.8c0-52.68-34.6-74.5-95.68-90.46-51.9-13.4-65.03-19.93-65.03-39.6v-.78c0-14.68 13.36-26.47 38.8-26.47 25.44 0 51.66 11.24 78.4 29.84l34.35-50.03c-30.42-24.38-67.9-38.28-111.94-38.28z"/></g></g></svg>