<svg xmlns="http://www.w3.org/2000/svg" width="213.112" height="100.66" viewBox="0 0 213.112 100.66">
  <g id="Group_617" data-name="Group 617" transform="translate(-69.588 -73.081)">
    <g id="Group_580" data-name="Group 580" transform="translate(78.915 111.269)">
      <g id="Group_579" data-name="Group 579" transform="translate(0 0)">
        <rect id="Rectangle_1213" data-name="Rectangle 1213" width="0.968" height="29.663" transform="translate(0 0.967) rotate(-87.398)" fill="#858585"/>
      </g>
    </g>
    <g id="Group_582" data-name="Group 582" transform="translate(86.668 84.153)">
      <g id="Group_581" data-name="Group 581" transform="translate(0 0)">
        <rect id="Rectangle_1214" data-name="Rectangle 1214" width="0.968" height="35.832" transform="translate(0 0.581) rotate(-36.899)" fill="#858585"/>
      </g>
    </g>
    <g id="Group_584" data-name="Group 584" transform="translate(221.231 83.827)">
      <g id="Group_583" data-name="Group 583" transform="translate(0 0)">
        <rect id="Rectangle_1215" data-name="Rectangle 1215" width="0.968" height="35.882" transform="translate(0 0.96) rotate(-82.409)" fill="#858585"/>
      </g>
    </g>
    <g id="Group_586" data-name="Group 586" transform="translate(102.247 116.26)">
      <g id="Group_585" data-name="Group 585" transform="translate(0 0)">
        <rect id="Rectangle_1216" data-name="Rectangle 1216" width="0.968" height="51.173" transform="translate(0 0.706) rotate(-46.832)" fill="#858585"/>
      </g>
    </g>
    <g id="Group_588" data-name="Group 588" transform="translate(221.34 86.276)">
      <g id="Group_587" data-name="Group 587" transform="translate(0 0)">
        <rect id="Rectangle_1217" data-name="Rectangle 1217" width="0.968" height="55.652" transform="translate(0 0.801) rotate(-55.859)" fill="#858585"/>
      </g>
    </g>
    <g id="Group_590" data-name="Group 590" transform="translate(139.626 121.495)">
      <g id="Group_589" data-name="Group 589" transform="translate(0 0)">
        <rect id="Rectangle_1218" data-name="Rectangle 1218" width="52.188" height="0.968" transform="translate(0 29.729) rotate(-34.726)" fill="#858585"/>
      </g>
    </g>
    <g id="Group_592" data-name="Group 592" transform="translate(138.006 93.861)">
      <g id="Group_591" data-name="Group 591" transform="translate(0 0)">
        <rect id="Rectangle_1219" data-name="Rectangle 1219" width="0.968" height="52.404" transform="translate(0 0.823) rotate(-58.191)" fill="#858585"/>
      </g>
    </g>
    <g id="Group_594" data-name="Group 594" transform="translate(99.942 113.554)">
      <g id="Group_593" data-name="Group 593" transform="translate(0 0)">
        <rect id="Rectangle_1220" data-name="Rectangle 1220" width="0.968" height="83.179" transform="translate(0 0.964) rotate(-84.579)" fill="#858585"/>
      </g>
    </g>
    <g id="Group_596" data-name="Group 596" transform="translate(181.228 83.954)">
      <g id="Group_595" data-name="Group 595" transform="translate(0 0)">
        <rect id="Rectangle_1221" data-name="Rectangle 1221" width="54.927" height="0.968" transform="translate(0 37.587) rotate(-43.181)" fill="#858585"/>
      </g>
    </g>
    <g id="Group_598" data-name="Group 598" transform="translate(181.295 121.488)">
      <g id="Group_597" data-name="Group 597" transform="translate(0 0)">
        <rect id="Rectangle_1222" data-name="Rectangle 1222" width="0.968" height="63.236" transform="translate(0 0.811) rotate(-56.925)" fill="#858585"/>
      </g>
    </g>
    <g id="Group_600" data-name="Group 600" transform="translate(182.779 117.423)">
      <g id="Group_599" data-name="Group 599" transform="translate(0 0)">
        <rect id="Rectangle_1223" data-name="Rectangle 1223" width="86.835" height="0.968" transform="matrix(0.999, -0.033, 0.033, 0.999, 0, 2.832)" fill="#858585"/>
      </g>
    </g>
    <g id="Group_601" data-name="Group 601" transform="translate(153.096 91.782)">
      <circle id="Ellipse_120" data-name="Ellipse 120" cx="26.183" cy="26.183" r="26.183" transform="translate(0 0)" fill="#ffc155"/>
    </g>
    <g id="Group_602" data-name="Group 602" transform="translate(125.057 79.069)">
      <circle id="Ellipse_121" data-name="Ellipse 121" cx="12.267" cy="12.267" r="12.267" transform="translate(0 0)" fill="#58b0cb"/>
    </g>
    <g id="Group_603" data-name="Group 603" transform="translate(94.27 99.16)">
      <path id="Path_1073" data-name="Path 1073" d="M280.344,309.7a13.939,13.939,0,0,1,13.939-13.939c7.7,0,14.659,6.241,14.659,13.939s-6.961,13.939-14.659,13.939A13.939,13.939,0,0,1,280.344,309.7Z" transform="translate(-280.344 -295.763)" fill="#ff953c"/>
    </g>
    <g id="Group_604" data-name="Group 604" transform="translate(126.201 136.066)">
      <circle id="Ellipse_122" data-name="Ellipse 122" cx="11" cy="11" r="11" transform="translate(0 15.556) rotate(-45)" fill="#8174aa"/>
    </g>
    <g id="Group_605" data-name="Group 605" transform="translate(209.133 73.081)">
      <circle id="Ellipse_123" data-name="Ellipse 123" cx="12.162" cy="12.162" r="12.162" transform="translate(0 0)" fill="#8174aa"/>
    </g>
    <g id="Group_606" data-name="Group 606" transform="translate(215.806 136.256)">
      <circle id="Ellipse_124" data-name="Ellipse 124" cx="13.253" cy="13.253" r="13.253" transform="translate(0 18.743) rotate(-45)" fill="#ff953c"/>
    </g>
    <g id="Group_607" data-name="Group 607" transform="translate(252.645 102.883)">
      <circle id="Ellipse_125" data-name="Ellipse 125" cx="15.028" cy="15.028" r="15.028" transform="translate(0 0)" fill="#58b0cb"/>
    </g>
    <g id="Group_608" data-name="Group 608" transform="translate(249.441 81.625)">
      <circle id="Ellipse_126" data-name="Ellipse 126" cx="7.422" cy="7.422" r="7.422" transform="translate(0 0)" fill="#ffc155"/>
    </g>
    <g id="Group_609" data-name="Group 609" transform="translate(78.88 75.55)">
      <ellipse id="Ellipse_127" data-name="Ellipse 127" cx="7.422" cy="7.422" rx="7.422" ry="7.422" transform="translate(0 14.469) rotate(-77.075)" fill="#ffc155"/>
    </g>
    <g id="Group_610" data-name="Group 610" transform="translate(69.588 102.403)">
      <ellipse id="Ellipse_128" data-name="Ellipse 128" cx="8.128" cy="8.128" rx="8.128" ry="8.128" transform="translate(0 16.037) rotate(-80.577)" fill="#8174aa"/>
    </g>
    <g id="Group_611" data-name="Group 611" transform="translate(91.258 139.304)">
      <ellipse id="Ellipse_129" data-name="Ellipse 129" cx="9.077" cy="9.077" rx="9.077" ry="9.077" transform="translate(0 17.93) rotate(-81.002)" fill="#58b0cb"/>
    </g>
    <g id="Group_612" data-name="Group 612" transform="translate(128.784 82.85)">
      <path id="Path_1074" data-name="Path 1074" d="M591.457,161.707a8.562,8.562,0,1,0,.671,3.323A8.506,8.506,0,0,0,591.457,161.707Zm-12.016,3.06a8.473,8.473,0,0,1,.227-1.958h3.493v4.061H579.7A8.838,8.838,0,0,1,579.441,164.767Zm6.293-5.613a9.027,9.027,0,0,1,1.459,2.334q.1.229.18.463H584.02v-4.38A9.892,9.892,0,0,1,585.734,159.154Zm-2.573-1.5v4.3h-3.239q.08-.225.172-.445a9.016,9.016,0,0,1,1.446-2.328A9.983,9.983,0,0,1,583.161,157.655Zm0,10.075v4.61a11.969,11.969,0,0,1-1.588-1.68,10.617,10.617,0,0,1-1.469-2.524q-.082-.2-.153-.406Zm.859,4.706V167.73h3.323q-.069.2-.147.39a10.6,10.6,0,0,1-1.458,2.517A11.945,11.945,0,0,1,584.02,172.436Zm0-5.566V162.81h3.607a8.466,8.466,0,0,1,.227,1.958,8.842,8.842,0,0,1-.254,2.1Zm4.487-4.061h2.437a7.765,7.765,0,0,1,.1,4.061h-2.566a9.686,9.686,0,0,0,.231-2.1A9.345,9.345,0,0,0,588.507,162.81Zm.513-3.209a7.672,7.672,0,0,1,1.608,2.349h-2.349q-.129-.4-.3-.8a9.882,9.882,0,0,0-1.6-2.557,10.913,10.913,0,0,0-1.013-1.036A7.629,7.629,0,0,1,589.02,159.6Zm-10.859,0a7.626,7.626,0,0,1,3.8-2.076,10.922,10.922,0,0,0-1.052,1.07,9.884,9.884,0,0,0-1.6,2.557q-.167.393-.3.8h-2.462A7.673,7.673,0,0,1,578.161,159.6Zm-1.924,3.209h2.55a9.353,9.353,0,0,0-.205,1.958,9.686,9.686,0,0,0,.231,2.1h-2.68a7.763,7.763,0,0,1,.1-4.061Zm1.924,7.65a7.656,7.656,0,0,1-1.763-2.73h2.647q.117.367.262.728a11.482,11.482,0,0,0,1.587,2.729,12.951,12.951,0,0,0,1.247,1.386A7.624,7.624,0,0,1,578.161,170.46Zm10.859,0a7.625,7.625,0,0,1-3.837,2.084,12.938,12.938,0,0,0,1.217-1.357,11.479,11.479,0,0,0,1.587-2.729q.146-.361.262-.728h2.533A7.657,7.657,0,0,1,589.02,170.46Z" transform="translate(-575.053 -156.493)" fill="#fff"/>
    </g>
    <g id="Group_614" data-name="Group 614" transform="translate(255.913 109.639)">
      <g id="Group_613" data-name="Group 613" transform="translate(0 0)">
        <path id="Path_1075" data-name="Path 1075" d="M1684.158,392.162a5.551,5.551,0,0,0-6.161-2.451l-.013,0a2.47,2.47,0,0,0-1.581,1.571c-.057.176-.335.1-.278-.077a2.736,2.736,0,0,1,1.655-1.72,5.94,5.94,0,0,0-11.545.676,3.641,3.641,0,0,1,.67.228,4.549,4.549,0,0,1,2.011,1.884.144.144,0,0,1-.249.146,4.648,4.648,0,0,0-.547-.75,3.857,3.857,0,0,0-3.026-1.315,4.931,4.931,0,0,0-3.219,1.532,4.777,4.777,0,0,0-1.269,3.64,4.691,4.691,0,0,0,1.857,3.32,5.826,5.826,0,0,0,3.332,1.109c.794.03,1.59.042,2.385.052,2.272.031,4.545.04,6.818.046q1.5,0,3,0a13.255,13.255,0,0,0,2.491-.09,5.354,5.354,0,0,0,4.379-5.661A5.164,5.164,0,0,0,1684.158,392.162Z" transform="translate(-1660.589 -385.241)" fill="#fff"/>
      </g>
    </g>
    <g id="Group_615" data-name="Group 615" transform="translate(99.893 104.568)">
      <path id="Path_1076" data-name="Path 1076" d="M342.067,354.336a2.389,2.389,0,0,0-2.511.466l-4.522-2.566a3.425,3.425,0,0,0-.141-2.611l4.271-2.824a2.851,2.851,0,1,0-.717-1.2l-4.4,2.906a3.433,3.433,0,1,0,.231,4.952l4.563,2.589a2.385,2.385,0,1,0,3.221-1.717Z" transform="translate(-328.363 -341.94)" fill="#fff"/>
    </g>
    <g id="Group_616" data-name="Group 616" transform="translate(95.997 145.089)">
      <path id="Path_1077" data-name="Path 1077" d="M306.975,692.136c0-2.316-2.66-4.194-5.941-4.194s-5.941,1.878-5.941,4.194a4.083,4.083,0,0,0,2.673,3.5l3.318,3.687-.552-3.01q.248.015.5.015C304.315,696.329,306.975,694.452,306.975,692.136Zm-8.431.65a.4.4,0,0,1,0-.807A.4.4,0,0,1,298.544,692.786Zm5.266-.807a.4.4,0,0,1,0,.807A.4.4,0,0,1,303.81,691.979Zm-2.491,0a.4.4,0,0,1,0,.807A.4.4,0,0,1,301.319,691.979Z" transform="translate(-295.093 -687.942)" fill="#fff"/>
    </g>
    <path id="Path_1078" data-name="Path 1078" d="M1332.179,123.46v-7.128h-2.388V113.5h2.388v-2.232a3.414,3.414,0,0,1,3.645-3.745,20.053,20.053,0,0,1,2.185.112v2.534h-1.5c-1.177,0-1.4.56-1.4,1.379V113.5h2.655l-.364,2.833H1335.1v7.128" transform="translate(-1112.618 -30.407)" fill="#fff"/>
    <path id="Path_1079" data-name="Path 1079" d="M638.388,702.012h-2.516v-8.1h2.516Zm-1.259-9.2a1.464,1.464,0,1,1,1.457-1.47A1.469,1.469,0,0,1,637.129,692.808Zm10.675,9.2h-2.51V698.07c0-.94-.019-2.145-1.308-2.145-1.308,0-1.508,1.021-1.508,2.077v4.01h-2.513v-8.1h2.413v1.1h.035a2.643,2.643,0,0,1,2.38-1.308c2.545,0,3.014,1.676,3.014,3.853v4.449Z" transform="translate(-499.789 -544.565)" fill="#fff"/>
    <path id="Path_1080" data-name="Path 1080" d="M867.935,319.84a9.315,9.315,0,1,0,9.315,9.315A9.3,9.3,0,0,0,867.935,319.84Zm0,15.371a6.056,6.056,0,1,1,6.056-6.056,6.067,6.067,0,0,1-6.056,6.056ZM879.8,319.459a2.173,2.173,0,1,1-2.173-2.173A2.168,2.168,0,0,1,879.8,319.459Zm6.17,2.205c-.138-2.91-.8-5.489-2.935-7.613s-4.7-2.789-7.613-2.935c-3-.17-11.99-.17-14.99,0-2.9.138-5.481.8-7.613,2.927s-2.789,4.7-2.935,7.613c-.17,3-.17,11.991,0,14.99.138,2.91.8,5.489,2.935,7.613s4.7,2.789,7.613,2.935c3,.17,11.99.17,14.99,0,2.911-.138,5.489-.8,7.613-2.935s2.789-4.7,2.935-7.613c.17-3,.17-11.982,0-14.982Zm-3.875,18.2a6.131,6.131,0,0,1-3.454,3.454c-2.392.948-8.067.73-10.71.73s-8.326.211-10.71-.73a6.132,6.132,0,0,1-3.454-3.454c-.948-2.392-.73-8.067-.73-10.71s-.211-8.326.73-10.71a6.132,6.132,0,0,1,3.454-3.454c2.392-.948,8.067-.73,10.71-.73s8.326-.211,10.71.73a6.131,6.131,0,0,1,3.454,3.454c.949,2.392.73,8.067.73,10.71S883.047,337.481,882.1,339.865Z" transform="translate(-688.805 -210.046)" fill="#fff"/>
    <path id="Path_1081" data-name="Path 1081" d="M1421.288,719.854c.011.158.011.316.011.474a10.376,10.376,0,0,1-15.97,8.735,7.546,7.546,0,0,0,.88.045,7.3,7.3,0,0,0,4.526-1.557,3.652,3.652,0,0,1-3.408-2.528,4.6,4.6,0,0,0,.688.056,3.858,3.858,0,0,0,.959-.124,3.646,3.646,0,0,1-2.923-3.578v-.045a3.67,3.67,0,0,0,1.648.463,3.651,3.651,0,0,1-1.129-4.876,10.361,10.361,0,0,0,7.516,3.815,4.109,4.109,0,0,1-.09-.835,3.649,3.649,0,0,1,6.309-2.494,7.178,7.178,0,0,0,2.314-.88,3.635,3.635,0,0,1-1.6,2.009,7.3,7.3,0,0,0,2.1-.564,7.838,7.838,0,0,1-1.828,1.885Z" transform="translate(-1179.311 -567.849)" fill="#fff"/>
  </g>
</svg>
